<mxfile host="app.diagrams.net" modified="2023-06-19T12:13:52.551Z" agent="Mozilla/5.0 (X11; Linux x86_64; rv:96.0) Gecko/20100101 Firefox/96.0" etag="bG9weONNa9Fg-vPcyT0a" version="21.5.0" type="device">
  <diagram name="Página-1" id="NUzTkLxquyQZgQ580iQw">
    <mxGraphModel dx="2261" dy="743" grid="1" gridSize="10" guides="1" tooltips="1" connect="1" arrows="1" fold="1" page="1" pageScale="1" pageWidth="827" pageHeight="1169" math="0" shadow="0">
      <root>
        <mxCell id="0" />
        <mxCell id="1" parent="0" />
        <mxCell id="YkV0GFtJgSLd6OMxU0IM-1" value="&lt;div&gt;Funcionario&lt;/div&gt;" style="shape=umlActor;verticalLabelPosition=bottom;verticalAlign=top;html=1;" parent="1" vertex="1">
          <mxGeometry x="360" y="240" width="30" height="60" as="geometry" />
        </mxCell>
        <mxCell id="YkV0GFtJgSLd6OMxU0IM-3" value="&lt;div&gt;Gerente&lt;/div&gt;" style="shape=umlActor;verticalLabelPosition=bottom;verticalAlign=top;html=1;" parent="1" vertex="1">
          <mxGeometry x="370" y="480" width="30" height="60" as="geometry" />
        </mxCell>
        <mxCell id="YkV0GFtJgSLd6OMxU0IM-4" value="Cadastrar Acervo" style="ellipse;whiteSpace=wrap;html=1;" parent="1" vertex="1">
          <mxGeometry x="660" y="620" width="140" height="60" as="geometry" />
        </mxCell>
        <mxCell id="YkV0GFtJgSLd6OMxU0IM-5" value="Registrar Locação" style="ellipse;whiteSpace=wrap;html=1;" parent="1" vertex="1">
          <mxGeometry x="540" y="80" width="140" height="70" as="geometry" />
        </mxCell>
        <mxCell id="YkV0GFtJgSLd6OMxU0IM-6" value="Registrar Devolução" style="ellipse;whiteSpace=wrap;html=1;" parent="1" vertex="1">
          <mxGeometry x="540" y="235" width="140" height="70" as="geometry" />
        </mxCell>
        <mxCell id="YkV0GFtJgSLd6OMxU0IM-7" value="Cadastrar Cliente" style="ellipse;whiteSpace=wrap;html=1;" parent="1" vertex="1">
          <mxGeometry x="80" y="250" width="140" height="70" as="geometry" />
        </mxCell>
        <mxCell id="YkV0GFtJgSLd6OMxU0IM-8" value="Registrar Multa" style="ellipse;whiteSpace=wrap;html=1;" parent="1" vertex="1">
          <mxGeometry x="860" y="210" width="140" height="70" as="geometry" />
        </mxCell>
        <mxCell id="YkV0GFtJgSLd6OMxU0IM-9" value="Cadastrar Funcionario" style="ellipse;whiteSpace=wrap;html=1;" parent="1" vertex="1">
          <mxGeometry x="390" y="740" width="140" height="70" as="geometry" />
        </mxCell>
        <mxCell id="YkV0GFtJgSLd6OMxU0IM-10" value="&lt;div&gt;Manter Metas de Venda&lt;/div&gt;" style="ellipse;whiteSpace=wrap;html=1;" parent="1" vertex="1">
          <mxGeometry x="220" y="700" width="140" height="70" as="geometry" />
        </mxCell>
        <mxCell id="YkV0GFtJgSLd6OMxU0IM-11" value="Manter Promoção" style="ellipse;whiteSpace=wrap;html=1;" parent="1" vertex="1">
          <mxGeometry x="730" y="515" width="140" height="70" as="geometry" />
        </mxCell>
        <mxCell id="YkV0GFtJgSLd6OMxU0IM-12" value="Efetuar Login" style="ellipse;whiteSpace=wrap;html=1;" parent="1" vertex="1">
          <mxGeometry x="280" y="30" width="140" height="70" as="geometry" />
        </mxCell>
        <mxCell id="YkV0GFtJgSLd6OMxU0IM-13" value="Manter Usuários" style="ellipse;whiteSpace=wrap;html=1;" parent="1" vertex="1">
          <mxGeometry x="-10" y="530" width="140" height="70" as="geometry" />
        </mxCell>
        <mxCell id="YkV0GFtJgSLd6OMxU0IM-14" value="Cancelar Multa" style="ellipse;whiteSpace=wrap;html=1;" parent="1" vertex="1">
          <mxGeometry x="770" y="390" width="140" height="70" as="geometry" />
        </mxCell>
        <mxCell id="YkV0GFtJgSLd6OMxU0IM-15" value="Registrar Pagamento" style="ellipse;whiteSpace=wrap;html=1;" parent="1" vertex="1">
          <mxGeometry x="50" y="100" width="140" height="70" as="geometry" />
        </mxCell>
        <mxCell id="YkV0GFtJgSLd6OMxU0IM-22" value="" style="endArrow=open;endFill=1;endSize=12;html=1;rounded=0;entryX=1;entryY=1;entryDx=0;entryDy=0;" parent="1" target="YkV0GFtJgSLd6OMxU0IM-7" edge="1">
          <mxGeometry width="160" relative="1" as="geometry">
            <mxPoint x="350" y="285" as="sourcePoint" />
            <mxPoint x="490" y="430" as="targetPoint" />
          </mxGeometry>
        </mxCell>
        <mxCell id="YkV0GFtJgSLd6OMxU0IM-24" value="" style="endArrow=open;endFill=1;endSize=12;html=1;rounded=0;entryX=0.914;entryY=0.857;entryDx=0;entryDy=0;entryPerimeter=0;" parent="1" target="YkV0GFtJgSLd6OMxU0IM-15" edge="1">
          <mxGeometry width="160" relative="1" as="geometry">
            <mxPoint x="350" y="260" as="sourcePoint" />
            <mxPoint x="490" y="430" as="targetPoint" />
          </mxGeometry>
        </mxCell>
        <mxCell id="YkV0GFtJgSLd6OMxU0IM-27" value="" style="endArrow=open;endFill=1;endSize=12;html=1;rounded=0;entryX=0.007;entryY=0.714;entryDx=0;entryDy=0;entryPerimeter=0;" parent="1" target="YkV0GFtJgSLd6OMxU0IM-5" edge="1">
          <mxGeometry width="160" relative="1" as="geometry">
            <mxPoint x="410" y="260" as="sourcePoint" />
            <mxPoint x="490" y="430" as="targetPoint" />
          </mxGeometry>
        </mxCell>
        <mxCell id="YkV0GFtJgSLd6OMxU0IM-28" value="" style="endArrow=open;endFill=1;endSize=12;html=1;rounded=0;" parent="1" target="YkV0GFtJgSLd6OMxU0IM-12" edge="1">
          <mxGeometry width="160" relative="1" as="geometry">
            <mxPoint x="370" y="230" as="sourcePoint" />
            <mxPoint x="490" y="430" as="targetPoint" />
          </mxGeometry>
        </mxCell>
        <mxCell id="YkV0GFtJgSLd6OMxU0IM-29" value="" style="endArrow=open;endFill=1;endSize=12;html=1;rounded=0;" parent="1" edge="1">
          <mxGeometry width="160" relative="1" as="geometry">
            <mxPoint x="410" y="300" as="sourcePoint" />
            <mxPoint x="530" y="280" as="targetPoint" />
          </mxGeometry>
        </mxCell>
        <mxCell id="YkV0GFtJgSLd6OMxU0IM-30" value="" style="endArrow=open;endFill=1;endSize=12;html=1;rounded=0;" parent="1" target="YkV0GFtJgSLd6OMxU0IM-11" edge="1">
          <mxGeometry width="160" relative="1" as="geometry">
            <mxPoint x="420" y="510" as="sourcePoint" />
            <mxPoint x="490" y="430" as="targetPoint" />
          </mxGeometry>
        </mxCell>
        <mxCell id="YkV0GFtJgSLd6OMxU0IM-32" value="" style="endArrow=open;endFill=1;endSize=12;html=1;rounded=0;" parent="1" target="YkV0GFtJgSLd6OMxU0IM-4" edge="1">
          <mxGeometry width="160" relative="1" as="geometry">
            <mxPoint x="420" y="530" as="sourcePoint" />
            <mxPoint x="490" y="430" as="targetPoint" />
          </mxGeometry>
        </mxCell>
        <mxCell id="YkV0GFtJgSLd6OMxU0IM-33" value="" style="endArrow=open;endFill=1;endSize=12;html=1;rounded=0;" parent="1" target="YkV0GFtJgSLd6OMxU0IM-14" edge="1">
          <mxGeometry width="160" relative="1" as="geometry">
            <mxPoint x="410" y="500" as="sourcePoint" />
            <mxPoint x="490" y="430" as="targetPoint" />
          </mxGeometry>
        </mxCell>
        <mxCell id="YkV0GFtJgSLd6OMxU0IM-35" value="" style="endArrow=open;endFill=1;endSize=12;html=1;rounded=0;entryX=0.336;entryY=-0.057;entryDx=0;entryDy=0;entryPerimeter=0;" parent="1" target="YkV0GFtJgSLd6OMxU0IM-9" edge="1">
          <mxGeometry width="160" relative="1" as="geometry">
            <mxPoint x="390" y="580" as="sourcePoint" />
            <mxPoint x="490" y="430" as="targetPoint" />
          </mxGeometry>
        </mxCell>
        <mxCell id="YkV0GFtJgSLd6OMxU0IM-36" value="" style="endArrow=open;endFill=1;endSize=12;html=1;rounded=0;" parent="1" target="YkV0GFtJgSLd6OMxU0IM-13" edge="1">
          <mxGeometry width="160" relative="1" as="geometry">
            <mxPoint x="350" y="530" as="sourcePoint" />
            <mxPoint x="490" y="430" as="targetPoint" />
          </mxGeometry>
        </mxCell>
        <mxCell id="YkV0GFtJgSLd6OMxU0IM-38" value="" style="endArrow=open;endFill=1;endSize=12;html=1;rounded=0;" parent="1" edge="1">
          <mxGeometry width="160" relative="1" as="geometry">
            <mxPoint x="360" y="580" as="sourcePoint" />
            <mxPoint x="300" y="690" as="targetPoint" />
          </mxGeometry>
        </mxCell>
        <mxCell id="YkV0GFtJgSLd6OMxU0IM-42" value="Extend" style="endArrow=open;endSize=12;dashed=1;html=1;rounded=0;entryX=0;entryY=0.5;entryDx=0;entryDy=0;" parent="1" target="YkV0GFtJgSLd6OMxU0IM-8" edge="1">
          <mxGeometry width="160" relative="1" as="geometry">
            <mxPoint x="700" y="260" as="sourcePoint" />
            <mxPoint x="870" y="234.5" as="targetPoint" />
          </mxGeometry>
        </mxCell>
        <mxCell id="YkV0GFtJgSLd6OMxU0IM-44" value="Extends" style="endArrow=block;endSize=16;endFill=0;html=1;rounded=0;" parent="1" edge="1">
          <mxGeometry width="160" relative="1" as="geometry">
            <mxPoint x="380" y="470" as="sourcePoint" />
            <mxPoint x="380" y="320" as="targetPoint" />
          </mxGeometry>
        </mxCell>
        <mxCell id="YkV0GFtJgSLd6OMxU0IM-45" value="Extends" style="endArrow=open;endSize=12;dashed=1;html=1;rounded=0;" parent="1" edge="1">
          <mxGeometry width="160" relative="1" as="geometry">
            <mxPoint x="940" y="280" as="sourcePoint" />
            <mxPoint x="860" y="380" as="targetPoint" />
          </mxGeometry>
        </mxCell>
        <mxCell id="YkV0GFtJgSLd6OMxU0IM-46" value="Registrar Pagamento" style="ellipse;whiteSpace=wrap;html=1;" parent="1" vertex="1">
          <mxGeometry x="830" y="70" width="140" height="70" as="geometry" />
        </mxCell>
        <mxCell id="YkV0GFtJgSLd6OMxU0IM-47" value="Extends" style="endArrow=open;endSize=12;dashed=1;html=1;rounded=0;" parent="1" edge="1">
          <mxGeometry width="160" relative="1" as="geometry">
            <mxPoint x="690" y="115" as="sourcePoint" />
            <mxPoint x="820" y="110" as="targetPoint" />
          </mxGeometry>
        </mxCell>
        <mxCell id="YkV0GFtJgSLd6OMxU0IM-48" value="Extends" style="endArrow=open;endSize=12;dashed=1;html=1;rounded=0;" parent="1" edge="1">
          <mxGeometry width="160" relative="1" as="geometry">
            <mxPoint x="670" y="240" as="sourcePoint" />
            <mxPoint x="850" y="140" as="targetPoint" />
          </mxGeometry>
        </mxCell>
        <mxCell id="YkV0GFtJgSLd6OMxU0IM-49" value="Aplicat Cupom de Desconto" style="ellipse;whiteSpace=wrap;html=1;" parent="1" vertex="1">
          <mxGeometry x="1120" y="140" width="140" height="70" as="geometry" />
        </mxCell>
        <mxCell id="YkV0GFtJgSLd6OMxU0IM-50" value="Extends" style="endArrow=open;endSize=12;dashed=1;html=1;rounded=0;" parent="1" edge="1">
          <mxGeometry width="160" relative="1" as="geometry">
            <mxPoint x="980" y="110" as="sourcePoint" />
            <mxPoint x="1120" y="160" as="targetPoint" />
          </mxGeometry>
        </mxCell>
      </root>
    </mxGraphModel>
  </diagram>
</mxfile>
